<svg  viewBox="0 0 120 120" fill="none" xmlns="http://www.w3.org/2000/svg">
<path d="M109.865 18.7167C110.334 28.0056 95.6445 52.2778 89.1536 61.9226C84.2 69.254 81.5951 73.1333 79.5026 76.1228C79.5881 76.194 79.6734 76.3008 79.8016 76.372C93.1677 61.4599 120.669 29.5716 119.985 18.7167C119.516 11.4565 112.598 10.5311 107.431 9.71256C102.306 8.894 93.3385 9.17872 83.8157 11.5988L86.5914 12.9512C102.392 9.78374 109.523 12.0615 109.865 18.7167Z" fill="white"/>
<path d="M81.5457 12.0344C77.0192 12.9597 73.2186 14.2054 69.9731 15.6645C56.6924 21.7859 53.9167 32.1781 53.9167 32.1781H66.9412C66.9412 32.1781 60.5357 26.6261 63.1833 24.1349C65.4039 22.0707 73.5175 26.2347 74.9267 26.8397C72.2791 21.1453 76.5921 15.2375 85.2182 12.9597L83.2538 11.8564C82.6987 11.9632 82.1009 11.9276 81.5457 12.0344Z" fill="white"/>
<path d="M61.3954 17.732C64.2993 13.7815 68.4842 11.397 75.274 11.7529C79.2881 11.9664 81.1671 13.1053 82.8325 14.5645C84.6687 16.344 85.0104 18.7641 85.0958 22.1095C85.352 31.6119 81.7222 48.7305 74.1637 66.6677C73.4378 68.376 72.8399 69.8352 72.2421 71.1164C72.4983 71.2588 75.1032 73.1095 75.1032 73.1095C75.1032 73.1095 75.7438 72.7536 80.7827 65.6C89.8358 53.4284 98.8035 31.256 98.4192 22.1451C98.2057 17.554 94.5332 14.4933 89.1953 12.5359C82.7044 10.1158 63.1463 9.7243 59.0468 9.7243C57.0824 9.7243 52.9829 9.83107 52.8121 9.83107C52.8121 9.83107 59.303 16.0593 55.9294 17.9099C52.5559 19.7606 45.0401 14.9204 45.0401 14.9204L44.8693 24.8499C54.8618 24.8143 58.6197 21.3265 61.3954 17.732Z" fill="white"/>
<path d="M35.9724 17.1567C38.5773 12.3877 42.3352 10.6438 46.1358 10.1455C46.1358 10.1455 44.8547 10.2523 42.8903 10.3947C36.9119 10.7861 26.6204 12.2809 22.7771 18.4023C22.0511 19.5056 21.5814 20.7157 21.496 22.1392C21.1543 30.2893 27.389 47.835 35.46 61.1455C37.2962 64.2062 41.0114 65.4518 41.5665 65.5586C42.5914 65.7365 43.659 65.9145 44.812 66.0568C38.5773 52.3192 34.5632 32.2111 34.8621 22.1392C34.9048 20.2174 35.3319 18.5447 35.9724 17.1567Z" fill="white"/>
<path d="M31.3546 62.6125C22.6004 50.0137 9.9175 27.4855 10.3445 19.0507C10.7716 11.221 19.056 11.0431 25.9312 11.4701C25.9312 11.4701 19.9101 8.76534 13.1203 9.54831C6.50124 10.2957 0.480065 11.7549 0.0103285 19.0152C-0.416705 25.6704 12.4797 44.177 23.5399 56.9537C26.7426 60.655 29.6464 61.9718 31.3546 62.6125Z" fill="white"/>
<path d="M38.7798 74.4543C43.4345 78.8674 47.6621 85.4515 62.3947 86.5904C72.3019 87.3378 80.7144 86.1989 89.6394 94.6692C80.3728 81.9993 69.2273 80.291 60.4304 80.0419C46.9361 79.686 43.6907 77.3015 38.7798 74.4543Z" fill="white"/>
<path d="M28.8045 63.3141C33.6727 67.6204 42.3415 76.162 55.1098 76.9805C63.8213 77.5499 74.796 77.1229 83.4648 84.8102C72.8744 71.1438 65.0597 69.827 51.7362 69.2932C40.7188 68.7949 33.8862 66.2324 28.8045 63.3141Z" fill="white"/>
<path d="M72.2538 1.13967C68.3251 -0.141557 60.3823 0.000799675 60.3823 0.000799675C60.3823 0.000799675 52.3967 -0.141557 48.5107 1.13967C44.582 2.4209 43.9842 4.52069 43.6853 8.04406C43.6853 8.04406 44.7956 2.95474 60.2969 2.95474C75.7982 2.95474 77.0793 8.04406 77.0793 8.04406C76.823 4.4851 76.1825 2.38531 72.2538 1.13967Z" fill="white"/>
<path d="M39.6208 111.573C38.5533 108.869 40.6029 104.883 44.2325 100.826C45.3 99.6515 47.7339 97.196 47.7339 97.196C47.7339 97.196 45.8551 95.5589 44.9157 94.6692C39.7916 97.6942 34.6248 101.289 31.166 104.954C27.9635 108.406 26.1274 112.321 27.4938 115.132C30.4401 121.182 56.9146 119.83 56.9146 119.83C56.9146 119.83 42.2255 118.228 39.6208 111.573Z" fill="white"/>
<path d="M80.4911 103.968C81.0035 106.388 81.1316 109.911 80.4484 111.584C78.1425 117.242 67.2539 119.271 64.0086 119.733C63.8805 119.733 63.9232 119.876 64.0086 119.911C68.7057 120.089 89.8852 120.552 92.5327 115.178C92.7462 114.716 92.8743 114.217 92.9597 113.719C93.0451 111.548 89.0739 106.459 80.4911 103.968Z" fill="white"/>
</svg>
